<svg xmlns="http://www.w3.org/2000/svg" width="42" height="42" viewBox="0 0 42 42">
  <g id="Group_67" data-name="Group 67" transform="translate(-776 -364)">
    <rect id="Rectangle_53" data-name="Rectangle 53" width="42" height="42" rx="10" transform="translate(776 364)" fill="#ffd8d8"/>
    <g id="Iconly_Bold_Delete" data-name="Iconly/Bold/Delete" transform="translate(788 376)">
      <g id="Delete" transform="translate(2.25 1.5)">
        <path id="Delete-2" data-name="Delete" d="M3.849,14.971a2.187,2.187,0,0,1-2.2-2.12c-.235-2.135-.627-7.183-.634-7.234A.593.593,0,0,1,1.159,5.2a.531.531,0,0,1,.392-.175h10.4a.543.543,0,0,1,.392.175.558.558,0,0,1,.136.419c0,.051-.4,5.106-.628,7.234a2.188,2.188,0,0,1-2.247,2.12c-.971.022-1.92.029-2.855.029C5.761,15,4.79,14.992,3.849,14.971ZM.535,3.818A.547.547,0,0,1,0,3.268V2.983a.543.543,0,0,1,.535-.551H2.722a.961.961,0,0,0,.931-.761l.114-.512A1.492,1.492,0,0,1,5.2,0H8.3A1.491,1.491,0,0,1,9.725,1.123l.122.547a.96.96,0,0,0,.931.762h2.187a.543.543,0,0,1,.535.551v.285a.547.547,0,0,1-.535.551Z" fill="#fd7272"/>
      </g>
    </g>
  </g>
</svg>
